<svg xmlns="http://www.w3.org/2000/svg" xmlns:xlink="http://www.w3.org/1999/xlink" width="89" height="14" viewBox="0 0 89 14">
    <defs>
        <path id="mtesmkadka" d="M0 0.018L11.122 0.018 11.122 12.767 0 12.767z"/>
    </defs>
    <g fill="none" fill-rule="evenodd">
        <g>
            <g>
                <g>
                    <path fill="#4A4A4A" d="M70.568 9.054c-1.519 0-2.62-1.091-2.62-2.594 0-1.504 1.101-2.594 2.62-2.594 1.52 0 2.621 1.09 2.621 2.594 0 1.503-1.102 2.594-2.62 2.594M70.547.083c-3.627 0-6.362 2.741-6.362 6.378 0 3.634 2.735 6.376 6.362 6.376 3.626 0 6.361-2.742 6.361-6.376 0-3.637-2.735-6.378-6.361-6.378M57.14 6.811h-.915V3.447h.915c1.557 0 2.25.387 2.25 1.69 0 1.31-.673 1.674-2.25 1.674M56.838.083h-4.012v12.714h3.4v-2.621h.612c3.687 0 5.976-1.834 5.976-5.037 0-3.216-2.29-5.056-5.976-5.056M82.917 6.811h-.915V3.447h.915c1.556 0 2.249.387 2.249 1.69 0 1.31-.673 1.674-2.25 1.674M82.615.083h-4.012v12.714h3.4v-2.621h.612c3.687 0 5.977-1.834 5.977-5.037 0-3.216-2.29-5.056-5.977-5.056M34.071 0L23.471 0 23.471 3.8 26.871 3.8 26.871 12.8 30.471 12.8 30.471 3.8 34.071 3.8zM45.071 3.2L45.071 0 36.271 0 36.271 12.8 45.071 12.8 45.071 9.6 39.471 9.6 39.471 8 45.071 8 45.071 5 39.471 5 39.471 3.2zM18.208.055L17.48.055 16.753.055 11.368 12.804 15.087 12.804 17.477 7.144 19.868 12.804 23.593 12.804z" transform="translate(-180.000000, -125.000000) translate(44.000000, 107.000000) translate(136.000000, 18.000000)"/>
                    <g transform="translate(-180.000000, -125.000000) translate(44.000000, 107.000000) translate(136.000000, 18.000000) translate(0.000000, 0.036720)">
                        <mask id="m5gcrz0wbb" fill="#fff">
                            <use xlink:href="#mtesmkadka"/>
                        </mask>
                        <path fill="#4A4A4A" d="M4.428 9.048h-.922V3.736h.922c1.94 0 3.01.954 3.01 2.656 0 1.703-1.07 2.656-3.01 2.656M4.277.018H0v12.75h4.277c4.03 0 6.845-2.66 6.845-6.375S8.307.018 4.277.018" mask="url(#m5gcrz0wbb)"/>
                    </g>
                </g>
            </g>
        </g>
    </g>
</svg>
